<?xml version="1.0" encoding="utf-8"?>
<svg version="1.1" xmlns="http://www.w3.org/2000/svg" xmlns:xlink="http://www.w3.org/1999/xlink" x="0px" y="0px"
	 viewBox="0 0 316.2 313.6" style="enable-background:new 0 0 316.2 313.6;" xml:space="preserve">
<path d="M169.9,311.4c-1.9,0.6-3.9,1.2-5.9,1.6c-2,0.4-4.1,0.6-6.2,0.6c-1.9,0-3.9-0.2-5.9-0.6c-2-0.4-4-1-5.9-1.6l-86.6-34.2
	c-8.3-3-14.2-8.5-17.6-16.6L2.5,173.7c-1.7-5.1-2.5-9.5-2.5-13.1c0-4.7,0.7-8.5,2.2-11.5l35.5-90.7c3.2-8.1,8.9-13.9,17.2-17.6
	l90.7-38.3c4-1.7,8.1-2.5,12.1-2.5c5.1,0,9.2,0.7,12.1,2.2l91.7,38c8.1,3.6,13.7,9.5,16.9,17.6l35.8,91.7c1.3,3.6,1.9,7.4,1.9,11.2
	c0,4.7-1,9.1-2.9,13.1l-39.6,86.9c-3.6,8.1-9.5,13.5-17.6,16.3L169.9,311.4z M299,165.1c0.6-1.5,1-3,1-4.5c0-0.2-0.2-1.2-0.6-2.9
	L262.2,62c-1.1-2.3-2.8-4.1-5.1-5.1l-95.5-39.6c-1.7-0.4-3-0.6-3.8-0.6c-0.6,0-1.8,0.2-3.5,0.6L59.4,57.5c-2.3,1-4,2.8-5.1,5.1
	l-37.1,94.8c-0.6,1.1-1,2.2-1,3.5c0,1.3,0.3,2.5,1,3.8l40.9,90.7c1.1,2.5,2.9,4.4,5.4,5.4l90.4,35.5c1.1,0.2,1.9,0.4,2.5,0.5
	c0.6,0.1,1.1,0.2,1.3,0.2c0.2,0,0.6-0.1,1.3-0.2c0.6-0.1,1.5-0.3,2.5-0.5l90.1-35.8c2.8-1.5,4.7-3.2,5.7-5.1L299,165.1z
	 M276.9,156.5c0,16.4-3.1,31.8-9.4,46.1s-14.8,27-25.6,37.7c-10.7,10.8-23.4,19.3-37.8,25.6c-14.5,6.3-29.8,9.4-46,9.4
	c-16.4,0-31.8-3.1-46.2-9.4c-14.4-6.3-26.9-14.8-37.7-25.6C63.5,229.6,55,217,48.7,202.6c-6.3-14.4-9.4-29.8-9.4-46.1
	c0-16.2,3.1-31.5,9.4-46C55,96,63.5,83.4,74.3,72.6C85,61.9,97.6,53.4,112,47.1c14.4-6.3,29.7-9.4,46.2-9.4c16.2,0,31.5,3.1,46,9.4
	c14.5,6.3,27.1,14.8,37.8,25.6c10.7,10.8,19.3,23.4,25.6,37.8S276.9,140.3,276.9,156.5z M256.5,156.5c0-13.6-2.5-26.4-7.7-38.3
	c-5.1-11.9-12.1-22.4-21.1-31.3c-9-8.9-19.4-16-31.3-21.1c-11.9-5.1-24.7-7.7-38.3-7.7c-13.6,0-26.4,2.5-38.3,7.7
	c-11.9,5.1-22.4,12.1-31.3,21.1c-8.9,8.9-16,19.4-21.1,31.3c-5.1,11.9-7.7,24.7-7.7,38.3c0,13.6,2.5,26.4,7.7,38.3
	c5.1,11.9,12.1,22.4,21.1,31.3c9,8.9,19.4,16,31.3,21.1c11.9,5.1,24.7,7.7,38.3,7.7c13.6,0,26.4-2.5,38.3-7.7
	c11.9-5.1,22.4-12.1,31.3-21.1c8.9-8.9,16-19.4,21.1-31.3C253.9,182.9,256.5,170.1,256.5,156.5z M246.9,156.5
	c0,12.1-2.3,23.6-7,34.5c-4.7,10.8-11,20.3-19,28.3c-8,8-17.4,14.3-28.3,19c-10.9,4.7-22.4,7-34.5,7c-12.1,0-23.6-2.3-34.5-7
	c-10.9-4.7-20.3-11-28.3-19c-8-8-14.3-17.4-19-28.3c-4.7-10.9-7-22.4-7-34.5c0-12.1,2.3-23.7,7-34.5c4.7-10.8,11-20.3,19-28.3
	c8-8,17.4-14.3,28.3-19c10.9-4.7,22.4-7,34.5-7c12.1,0,23.6,2.4,34.5,7c10.9,4.7,20.3,11,28.3,19c8,8,14.3,17.4,19,28.3
	C244.6,132.8,246.9,144.4,246.9,156.5z M240.5,156.5c0-11.3-2.2-21.9-6.6-31.9c-4.4-10-10.3-18.7-17.7-26.2
	c-7.5-7.5-16.2-13.4-26.2-17.7c-10-4.4-20.7-6.6-31.9-6.6c-11.3,0-21.9,2.2-31.9,6.6S107.4,90.9,100,98.4
	c-7.5,7.5-13.4,16.2-17.7,26.2s-6.6,20.6-6.6,31.9c0,11.3,2.2,21.9,6.6,31.9c4.4,10,10.3,18.7,17.7,26.2
	c7.4,7.5,16.2,13.4,26.2,17.7c10,4.4,20.7,6.6,31.9,6.6c11.3,0,21.9-2.2,31.9-6.6c10-4.4,18.7-10.3,26.2-17.7
	c7.4-7.5,13.4-16.2,17.7-26.2C238.3,178.4,240.5,167.8,240.5,156.5z"/>
</svg>